# xmcd CD database file
#
# Track frame offsets:
#	150
#	13755
#	25445
#	44127
#	52955
#	60355
#	68277
#	77467
#	93480
#	105575
#	113350
#	121930
#	130665
#	171965
#	184327
#	198720
#	206997
#
# Disc length: 3047 seconds
#
# Revision: 0
# Processed by: cddbd v1.5.2PL0 Copyright (c) Steve Scherf et al.
# Submitted via: CDex 1.70beta2
#
DISCID=e50be511
DTITLE=Jackson Berkey - Berkey meets Horowitz on the 503
DYEAR=1994
DGENRE=New Age
TTITLE0=Magnificat
TTITLE1=Crucifixus
TTITLE2=Gethsemane
TTITLE3=Love one another
TTITLE4=Rock destruction
TTITLE5=Sam Squirrel
TTITLE6=Five-point-five four
TTITLE7=Blindengarten
TTITLE8=Gloria
TTITLE9=Summer rain
TTITLE10=Colorado trail
TTITLE11=Automun brilliance
TTITLE12=Americasn Perspective One - Voices from the earth - A song cycle
TTITLE13=Evening
TTITLE14=Blindengarten (garden of the blind)
TTITLE15=Autumn comes to woman
TTITLE16=In a French mountain village
EXTD=YEAR: 1994
EXTT0=
EXTT1=
EXTT2=
EXTT3=
EXTT4=
EXTT5=
EXTT6=
EXTT7=
EXTT8=
EXTT9=
EXTT10=
EXTT11=
EXTT12=
EXTT13=
EXTT14=
EXTT15=
EXTT16=
PLAYORDER=
